<?xml version="1.0" encoding="UTF-8" standalone="no"?>
<svg
   xmlns:dc="http://purl.org/dc/elements/1.1/"
   xmlns:cc="http://creativecommons.org/ns#"
   xmlns:rdf="http://www.w3.org/1999/02/22-rdf-syntax-ns#"
   xmlns:svg="http://www.w3.org/2000/svg"
   xmlns="http://www.w3.org/2000/svg"
   xmlns:sodipodi="http://sodipodi.sourceforge.net/DTD/sodipodi-0.dtd"
   xmlns:inkscape="http://www.inkscape.org/namespaces/inkscape"
   version="1.1"
   id="svg2"
   xml:space="preserve"
   width="1333.3333"
   height="1066.6667"
   viewBox="0 0 1333.3333 1066.6667"
   sodipodi:docname="cartoonDogsWithBone.eps"><metadata
     id="metadata8"><rdf:RDF><cc:Work
         rdf:about=""><dc:format>image/svg+xml</dc:format><dc:type
           rdf:resource="http://purl.org/dc/dcmitype/StillImage" /></cc:Work></rdf:RDF></metadata><defs
     id="defs6" /><sodipodi:namedview
     pagecolor="#ffffff"
     bordercolor="#666666"
     borderopacity="1"
     objecttolerance="10"
     gridtolerance="10"
     guidetolerance="10"
     inkscape:pageopacity="0"
     inkscape:pageshadow="2"
     inkscape:window-width="640"
     inkscape:window-height="480"
     id="namedview4" /><g
     id="g10"
     inkscape:groupmode="layer"
     inkscape:label="ink_ext_XXXXXX"
     transform="matrix(1.3333333,0,0,-1.3333333,0,1066.6667)"><g
       id="g12"
       transform="scale(0.1)"><path
         d="M 0,0 H 10000 V 8000 H 0 Z"
         style="fill:#f2cca4;fill-opacity:1;fill-rule:nonzero;stroke:none"
         id="path14" /><path
         d="m 5000,1687.03 c -2041.02,0 -3695.58,126.91 -3695.58,283.44 0,38.99 102.72,76.16 288.43,109.97 141.55,-86.49 307.79,-136.36 485.48,-136.36 242.91,0 467.85,92.44 636.32,249.16 628.89,38.01 1422.55,60.69 2285.35,60.69 877.24,0 1683.17,-23.45 2316.94,-62.62 168.25,-155.55 392.35,-247.23 634.25,-247.23 174.79,0 338.49,48.25 478.53,132.16 171.48,-32.69 265.86,-68.38 265.86,-105.77 0,-156.53 -1654.57,-283.44 -3695.58,-283.44"
         style="fill:#bfa182;fill-opacity:1;fill-rule:nonzero;stroke:none"
         id="path16" /><path
         d="m 1324.1,4925.72 c 101.24,-37.48 195.7,5.33 181.55,108.76 -12.48,91.4 -107.51,168.56 -179.8,228.63 -95.99,79.79 -195.42,221.89 -313.66,262.13 -170.764,58.06 -172.803,-149.8 -104.94,-257.71 81.074,-128.96 279.42,-290.95 416.85,-341.81"
         style="fill:#3b393d;fill-opacity:1;fill-rule:nonzero;stroke:none"
         id="path18" /><path
         d="m 8664.74,5031.2 c -104.12,-26.81 -193.32,25.25 -168.78,126.21 21.68,89.26 123.64,156.01 201.36,208.17 103.25,69.23 216.17,199.87 337.39,227.68 175.07,40.14 155.91,-165.96 77.71,-265.95 -93.45,-119.46 -306.4,-259.74 -447.68,-296.11"
         style="fill:#89471f;fill-opacity:1;fill-rule:nonzero;stroke:none"
         id="path20" /><path
         d="m 8496,5365.16 c -158.45,89.19 -328.27,76.51 -503.2,79.44 -165.54,2.76 -338.91,-77.73 -432.68,-207.67 -84.03,-116.39 -78.35,-379.98 25.1,-488.05 130.75,-136.61 411.9,-123.11 592.91,-124.37 167.03,-1.14 318.18,68.48 423.96,188.22 79.55,90.02 120.68,322.43 60.07,434.6 -31.33,57.96 -105.37,83.59 -166.16,117.83"
         style="fill:#89471f;fill-opacity:1;fill-rule:nonzero;stroke:none"
         id="path22" /><path
         d="m 8671.85,5226.17 c -2.89,7.43 -6.09,14.54 -9.69,21.16 -31.33,57.96 -105.37,83.59 -166.16,117.83 -158.45,89.19 -328.27,76.51 -503.2,79.44 -165.54,2.76 -338.91,-77.73 -432.68,-207.67 -11.21,-15.53 -20.74,-33.68 -28.73,-53.7 55.9,-58.41 109.23,-96.21 165.62,-120.68 40.75,-43.62 93.43,-79.13 155.04,-102.12 69.2,-25.81 133.05,-43.97 207.8,-44.85 118.31,-1.43 258.49,6.46 357.44,79.28 22.92,16.87 40.68,42.19 54.19,71.67 78.37,30.42 146.61,79.77 200.37,159.64"
         style="fill:#4a2818;fill-opacity:1;fill-rule:nonzero;stroke:none"
         id="path24" /><path
         d="m 8712.28,6102.78 c 107.88,-183.59 84.51,-525.95 27.82,-688.71 -8.85,-25.39 -19.05,-50.27 -30.71,-74.42 -130.67,-270.89 -385.56,-274.5 -666.88,-274.13 -236.74,0.29 -370.71,7.54 -530.79,186.77 -127.12,142.29 -113.88,354.93 -107.52,533.79 13.72,385.85 421.67,508.21 750.07,495.43 156.73,-6.11 363.07,-3.36 489.73,-99.48 27.04,-20.51 49.61,-47.51 68.28,-79.25"
         style="fill:#89471f;fill-opacity:1;fill-rule:nonzero;stroke:none"
         id="path26" /><path
         d="m 7693.14,5114.38 c 41.23,-45.47 95.4,-82.45 158.91,-106.15 69.2,-25.82 133.05,-43.94 207.8,-44.84 118.31,-1.43 258.49,6.47 357.44,79.29 77.94,57.36 97.66,211.29 85.59,300.51 -13.25,98.09 -48.57,199.52 -142.62,243.65 -95.27,44.69 -182.42,92.74 -290.53,93.61 -53.4,0.43 -100.35,0.09 -150.57,-17.54 -75.6,-26.55 -190.97,-59.42 -241.31,-126.08 -109.76,-145.44 -86.65,-310 15.29,-422.45"
         style="fill:#f9a72c;fill-opacity:1;fill-rule:nonzero;stroke:none"
         id="path28" /><path
         d="m 8235.27,5476.62 c 0,-44.38 -80.67,-80.36 -180.16,-80.36 -99.47,0 -180.11,35.98 -180.11,80.36 0,44.39 80.64,80.37 180.11,80.37 99.49,0 180.16,-35.98 180.16,-80.37"
         style="fill:#100f0d;fill-opacity:1;fill-rule:nonzero;stroke:none"
         id="path30" /><path
         d="m 8154.33,5141.32 c -14.04,0 -27.88,2.43 -40.92,7.44 -37.04,14.17 -66.31,45.41 -84.55,90.26 -24.16,59.3 -24.89,135.75 -1.8,185.94 3.6,7.85 12.89,11.29 20.76,7.67 7.82,-3.6 11.27,-12.88 7.67,-20.74 -19.45,-42.26 -18.49,-110 2.32,-161.08 10.4,-25.54 30.44,-58.94 66.79,-72.88 28.61,-10.96 63.34,-4.9 90.6,15.79 26.4,19.99 40.48,49.61 37.74,79.15 -0.78,8.61 5.52,16.23 14.11,17.03 8.72,0.82 16.23,-5.51 17.03,-14.12 3.75,-40.4 -14.92,-80.42 -49.98,-107 -23.74,-18 -52.09,-27.46 -79.77,-27.46"
         style="fill:#100f0d;fill-opacity:1;fill-rule:nonzero;stroke:none"
         id="path32" /><path
         d="m 7978.33,5153.08 c -8.99,0 -17.77,1.31 -25.85,4.06 -23.67,8.09 -38.46,26.9 -41.62,52.94 -1.05,8.57 5.07,16.36 13.63,17.4 8.5,1.02 16.39,-5.06 17.42,-13.64 1.69,-14.06 8.46,-22.93 20.68,-27.1 19.15,-6.54 46.96,0.54 62.03,15.75 8.83,8.95 11.42,18.81 7.7,29.36 -2.89,8.14 1.37,17.06 9.53,19.94 8.12,2.88 17.05,-1.38 19.94,-9.52 7.71,-21.84 2.27,-44.35 -14.94,-61.76 -17.23,-17.39 -43.68,-27.43 -68.52,-27.43"
         style="fill:#100f0d;fill-opacity:1;fill-rule:nonzero;stroke:none"
         id="path34" /><path
         d="m 8043.29,5212 c 1.74,0.06 -16.55,-22.4 -18.78,-24.08 -9.01,-6.88 -21.95,-13.55 -33.19,-15.59 -19.61,-3.55 -41.15,6.34 -60.56,10.09 14.92,-20.32 37.74,-34.49 56.31,-51.35 27.6,-25.02 55.78,-38.76 92.64,-40.85 28.21,-1.61 63.2,7.93 87.29,22.24 27.73,16.47 40.3,42.05 63.39,62.72 -30.22,-14.76 -77.9,-4.09 -110.93,-2.11 -17.58,1.05 -24.9,2.2 -39.19,12.75 -11.35,8.41 -22.3,26.64 -36.98,26.18"
         style="fill:#100f0d;fill-opacity:1;fill-rule:nonzero;stroke:none"
         id="path36" /><path
         d="m 8235.18,5989.61 c 32.95,-92.53 -149.83,-147.9 -127.47,-33.08 12.47,64.1 101.06,107.11 127.47,33.08"
         style="fill:#f9a72c;fill-opacity:1;fill-rule:nonzero;stroke:none"
         id="path38" /><path
         d="m 7898.44,5989.61 c -32.94,-92.53 149.81,-147.9 127.47,-33.08 -12.46,64.1 -101.06,107.11 -127.47,33.08"
         style="fill:#f9a72c;fill-opacity:1;fill-rule:nonzero;stroke:none"
         id="path40" /><path
         d="m 9069.19,5893.35 c -0.91,-13.32 -3.39,-26.11 -7.71,-38.11 -75.6,-209.65 -488.24,61.11 -554.19,154.03 -83.53,117.69 -10.89,211.59 114.8,247.93 137.62,39.77 251.78,-33.32 345.92,-127.84 51.78,-51.98 106.81,-153.55 101.18,-236.01"
         style="fill:#4a2818;fill-opacity:1;fill-rule:nonzero;stroke:none"
         id="path42" /><path
         d="m 7125.11,5893.35 c 0.89,-13.32 3.36,-26.11 7.67,-38.11 75.62,-209.65 488.26,61.11 554.2,154.03 83.55,117.69 10.91,211.59 -114.81,247.93 -137.59,39.77 -251.74,-33.32 -345.91,-127.84 -51.74,-51.98 -106.8,-153.55 -101.15,-236.01"
         style="fill:#4a2818;fill-opacity:1;fill-rule:nonzero;stroke:none"
         id="path44" /><path
         d="m 7609.08,5774.88 c -4.39,-18.1 -4.55,-37.32 -3.22,-54.26 2.17,-27.72 68.52,26.94 68.29,26.81 14.66,7.76 20.75,15.83 40.98,13.33 27.69,-3.46 71.67,-68.61 88.17,-18.77 17.7,53.43 -56.26,111.92 -124.67,98.26 -43.31,-8.64 -62.27,-35.5 -69.55,-65.37"
         style="fill:#100f0d;fill-opacity:1;fill-rule:nonzero;stroke:none"
         id="path46" /><path
         d="m 8342.71,5771.15 c 0,-85.42 32.11,-154.67 71.78,-154.67 39.64,0 71.78,69.25 71.78,154.67 0,85.44 -32.14,154.7 -71.78,154.7 -39.67,0 -71.78,-69.26 -71.78,-154.7"
         style="fill:#100f0d;fill-opacity:1;fill-rule:nonzero;stroke:none"
         id="path48" /><path
         d="m 7102.01,4288.76 c -91.81,-27.79 -226.1,-6.96 -249.56,92.07 -18.43,77.8 83.98,96.11 131.04,118.5 44.45,21.19 90.34,51.47 125.5,86.26 30.29,29.99 58.69,62.27 83.29,96.32 33.35,46.21 77.77,96.61 94.99,149.91 6.91,-38.82 -9.98,-77.33 -13.33,-112.53 22.52,25.9 42.36,50.37 61.61,80.99 3.14,-71.41 8.04,-138.58 -3.7,-207.67 9.91,15.77 20.01,32.13 31.09,46.7 -27.83,-134.88 -97.75,-246.17 -208.63,-325.85 -14.38,-10.32 -32.33,-18.66 -52.3,-24.7"
         style="fill:#28282a;fill-opacity:1;fill-rule:nonzero;stroke:none"
         id="path50" /><path
         d="m 6307.41,4219.89 c 18.34,125.2 -17.43,374.68 -205.18,270.34 -172.77,-95.98 -164.97,-338.2 -141.26,-504.02 14.54,-101.94 78.97,-230.48 195.63,-142.98 126.1,94.53 130.14,235.4 150.81,376.66"
         style="fill:#28282a;fill-opacity:1;fill-rule:nonzero;stroke:none"
         id="path52" /><path
         d="m 6758.81,4219.89 c -18.33,125.2 17.43,374.68 205.21,270.34 172.76,-95.98 164.96,-338.2 141.27,-504.02 -14.61,-101.94 -79,-230.48 -195.66,-142.98 -126.09,94.53 -130.14,235.4 -150.82,376.66"
         style="fill:#28282a;fill-opacity:1;fill-rule:nonzero;stroke:none"
         id="path54" /><path
         d="m 6930.94,4677.58 c -152.42,85.85 -315.77,73.6 -484.08,76.42 -159.26,2.66 -326.02,-74.74 -416.24,-199.78 -80.82,-111.98 -75.37,-365.54 24.14,-469.49 125.77,-131.41 396.26,-118.44 570.37,-119.63 160.71,-1.13 306.11,65.88 407.87,181.06 76.53,86.59 116.08,310.17 57.77,418.1 -30.13,55.72 -101.35,80.38 -159.83,113.32"
         style="fill:#505256;fill-opacity:1;fill-rule:nonzero;stroke:none"
         id="path56" /><path
         d="m 6325.07,4361.26 c -42.45,94.34 -135.16,130.04 -196.27,50.88 -53.99,-69.94 -42.84,-186.64 -35.27,-276.36 10.04,-119.13 -20.18,-282.53 31.79,-390.27 75.1,-155.61 218.38,-17.32 246.47,101.52 33.55,142 10.88,386.25 -46.72,514.23"
         style="fill:#505256;fill-opacity:1;fill-rule:nonzero;stroke:none"
         id="path58" /><path
         d="m 6795.99,4361.26 c 42.43,94.34 135.11,130.04 196.23,50.88 54.03,-69.94 42.85,-186.64 35.29,-276.36 -10.03,-119.13 20.19,-282.53 -31.79,-390.27 -75.1,-155.61 -218.39,-17.32 -246.45,101.52 -33.58,142 -10.9,386.25 46.72,514.23"
         style="fill:#505256;fill-opacity:1;fill-rule:nonzero;stroke:none"
         id="path60" /><path
         d="m 7100.1,4543.87 c -2.78,7.16 -5.86,13.98 -9.33,20.39 -30.13,55.72 -101.35,80.38 -159.83,113.32 -152.42,85.85 -315.77,73.6 -484.08,76.42 -159.26,2.66 -326.02,-74.74 -416.24,-199.78 -10.78,-14.92 -19.96,-32.39 -27.64,-51.63 53.78,-56.19 105.07,-92.58 159.33,-116.11 39.19,-41.97 89.89,-76.12 149.15,-98.24 66.56,-24.84 127.99,-42.29 199.9,-43.14 113.82,-1.38 248.66,6.19 343.85,76.25 22.05,16.24 39.12,40.61 52.14,68.93 75.4,29.29 141.02,76.76 192.75,153.59"
         style="fill:#28282a;fill-opacity:1;fill-rule:nonzero;stroke:none"
         id="path62" /><path
         d="m 7138.98,5387.18 c 103.78,-176.61 81.3,-505.96 26.76,-662.56 -8.5,-24.4 -18.28,-48.33 -29.51,-71.58 -125.72,-260.59 -370.92,-264.04 -641.55,-263.7 -227.73,0.28 -356.64,7.26 -510.62,179.64 -122.3,136.94 -109.54,341.46 -103.44,513.53 13.22,371.19 242.09,499.25 721.57,476.62 150.72,-7.11 349.29,-3.23 471.13,-95.72 25.99,-19.71 47.72,-45.68 65.66,-76.23"
         style="fill:#505256;fill-opacity:1;fill-rule:nonzero;stroke:none"
         id="path64" /><path
         d="m 7428.6,5346.29 c -12.91,-48.81 -35.12,-93.41 -69.16,-120.66 -86.6,-69.22 -205.58,-96.39 -306.63,-48.58 -48.57,22.98 -112.71,43.47 -134.21,97.77 -21.8,55.07 19.73,128.48 29.45,183.91 13.32,76.06 34.26,150.5 56.08,224.55 18.19,61.76 45.26,122.6 61.23,184.11 9.62,37.01 0.11,54.21 39.92,48.84 94.89,-12.82 207.42,-138 259.52,-211.68 39.26,-55.57 64.97,-120.48 74.53,-188.49 6.72,-47.93 4.56,-111.82 -10.73,-169.77"
         style="fill:#505256;fill-opacity:1;fill-rule:nonzero;stroke:none"
         id="path66" /><path
         d="m 7103.3,5608.61 c 10.72,65.59 26.32,127.71 47.26,194.87 102.47,-77.22 193.97,-201.17 203.89,-331.68 7.43,-97.62 -30.78,-167.21 -102.24,-227.01 -4.82,16.28 0.41,31.62 -3.07,47.91 -23.92,-2.85 -47.22,-12.28 -71.98,-15.58 28.6,65.42 -44.47,25.38 -73.3,25.41 3.88,10.24 4.26,22.22 7.22,31.97 -4.59,-15.07 -67.91,-34.33 -80.04,-42.57 57.89,39.27 55.72,177.35 61.93,238.43 2.72,26.93 6.17,52.84 10.33,78.25"
         style="fill:#28282a;fill-opacity:1;fill-rule:nonzero;stroke:none"
         id="path68" /><path
         d="m 5686.34,5353.54 c 12.92,-48.8 35.11,-93.41 69.16,-120.65 86.6,-69.22 205.59,-96.4 306.63,-48.58 48.57,22.97 112.72,43.45 134.22,97.77 21.79,55.05 -19.74,128.47 -29.46,183.91 -13.31,76.05 -34.25,150.5 -56.06,224.55 -18.21,61.75 -45.28,122.59 -61.25,184.1 -9.61,37.02 -0.1,54.22 -39.91,48.84 -94.91,-12.82 -207.43,-138 -259.53,-211.68 -39.26,-55.55 -64.96,-120.48 -74.51,-188.48 -6.74,-47.93 -4.59,-111.82 10.71,-169.78"
         style="fill:#505256;fill-opacity:1;fill-rule:nonzero;stroke:none"
         id="path70" /><path
         d="m 6011.65,5615.85 c -10.75,65.59 -26.34,127.71 -47.26,194.87 -102.48,-77.19 -193.98,-201.15 -203.9,-331.68 -7.42,-97.59 30.78,-167.19 102.25,-226.99 4.8,16.28 -0.44,31.62 3.07,47.9 23.91,-2.83 47.22,-12.28 71.98,-15.58 -28.61,65.41 44.46,25.39 73.3,25.42 -3.88,10.23 -4.26,22.22 -7.22,31.96 4.59,-15.06 67.88,-34.33 80.04,-42.58 -57.89,39.26 -55.74,177.37 -61.93,238.45 -2.73,26.94 -6.18,52.85 -10.33,78.23"
         style="fill:#28282a;fill-opacity:1;fill-rule:nonzero;stroke:none"
         id="path72" /><path
         d="m 6180.11,4434.17 c 38.71,-43.11 89.56,-78.15 149.17,-100.59 64.95,-24.46 124.88,-41.64 195.05,-42.48 111.02,-1.35 242.57,6.11 335.45,75.11 73.15,54.36 91.66,200.21 80.33,284.76 -12.43,92.95 -45.59,189.04 -133.85,230.86 -89.41,42.34 -171.24,87.88 -272.69,88.71 -50.12,0.4 -94.17,0.1 -141.32,-16.61 -70.94,-25.18 -179.22,-56.31 -226.47,-119.49 -103.04,-137.8 -81.35,-293.75 14.33,-400.27"
         style="fill:#bcc2cc;fill-opacity:1;fill-rule:nonzero;stroke:none"
         id="path74" /><path
         d="m 7030.43,5158 c -12.61,60.61 -57.3,141.5 -133.61,154.71 -43.37,7.5 -98.15,-14.34 -134.1,-34.36 -60.38,-33.62 -121.18,-105.53 -181.42,-128.18 5.84,2.2 -33.57,138.59 -40.41,153.65 -17.78,-6.2 -22.38,-25.01 -27.94,-42.62 -11.63,-36.85 -23.96,-72.54 -29.5,-111.03 -60.25,22.65 -121.05,94.56 -181.43,128.18 -35.92,20.02 -90.71,41.86 -134.09,34.36 -76.29,-13.21 -121.01,-94.1 -133.61,-154.71 -15.5,-74.48 -24,-149.27 24.97,-216.13 64.67,-88.31 223.84,-148.12 335.43,-163.89 52.12,-7.34 94.44,-7.41 137.65,-1.12 43.22,-6.29 85.55,-6.22 137.67,1.12 111.59,15.77 270.74,75.58 335.43,163.89 48.97,66.86 40.45,141.65 24.96,216.13"
         style="fill:#bcc2cc;fill-opacity:1;fill-rule:nonzero;stroke:none"
         id="path76" /><path
         d="m 6937.66,5067.66 c 0,-78.11 -29.09,-141.45 -65.04,-141.45 -35.88,0 -64.97,63.34 -64.97,141.45 0,78.13 29.09,141.44 64.97,141.44 35.95,0 65.04,-63.31 65.04,-141.44"
         style="fill:#100f0d;fill-opacity:1;fill-rule:nonzero;stroke:none"
         id="path78" /><path
         d="m 6256.79,5068.74 c 0,-78.12 -29.12,-141.45 -65.05,-141.45 -35.88,0 -64.97,63.33 -64.97,141.45 0,78.13 29.09,141.46 64.97,141.46 35.93,0 65.05,-63.33 65.05,-141.46"
         style="fill:#100f0d;fill-opacity:1;fill-rule:nonzero;stroke:none"
         id="path80" /><path
         d="m 6688.94,4777.39 c 0,-42.03 -75.71,-76.14 -169.1,-76.14 -93.36,0 -169.03,34.11 -169.03,76.14 0,42.07 75.67,76.15 169.03,76.15 93.39,0 169.1,-34.08 169.1,-76.15"
         style="fill:#100f0d;fill-opacity:1;fill-rule:nonzero;stroke:none"
         id="path82" /><path
         d="m 6612.99,4459.7 c -13.2,0 -26.2,2.3 -38.41,7.02 -34.78,13.45 -62.23,43.03 -79.37,85.54 -22.67,56.18 -23.36,128.63 -1.67,176.19 3.38,7.42 12.1,10.7 19.47,7.26 7.34,-3.41 10.58,-12.2 7.2,-19.64 -18.26,-40.05 -17.36,-104.24 2.18,-152.62 9.75,-24.24 28.58,-55.86 62.68,-69.06 26.87,-10.41 59.44,-4.68 85.05,14.94 24.76,18.95 37.99,47 35.42,75.01 -0.75,8.15 5.17,15.37 13.25,16.14 8.14,0.76 15.21,-5.23 15.97,-13.39 3.52,-38.3 -14.01,-76.17 -46.92,-101.38 -22.27,-17.06 -48.88,-26.01 -74.85,-26.01"
         style="fill:#100f0d;fill-opacity:1;fill-rule:nonzero;stroke:none"
         id="path84" /><path
         d="m 6447.8,4470.83 c -8.45,0 -16.69,1.25 -24.26,3.87 -22.21,7.66 -36.11,25.45 -39.07,50.12 -0.97,8.12 4.75,15.52 12.8,16.51 7.95,0.95 15.37,-4.8 16.33,-12.94 1.61,-13.33 7.97,-21.72 19.4,-25.68 17.99,-6.17 44.09,0.53 58.24,14.96 8.27,8.44 10.72,17.79 7.22,27.78 -2.71,7.72 1.31,16.17 8.93,18.91 7.66,2.72 16.03,-1.33 18.74,-9.02 7.24,-20.71 2.12,-42.02 -14.04,-58.52 -16.14,-16.49 -40.98,-25.99 -64.29,-25.99"
         style="fill:#100f0d;fill-opacity:1;fill-rule:nonzero;stroke:none"
         id="path86" /><path
         d="m 1534.53,5280.86 c 156.84,93.53 327.65,85.05 503.22,92.35 166.11,6.93 342.19,-69.51 439.6,-197.65 87.25,-114.76 88.17,-379.52 -12.98,-490.62 -127.84,-140.41 -410.47,-133.91 -592.15,-139.7 -167.69,-5.35 -321.18,60.79 -430.36,178.35 -82.14,88.37 -129.25,320.68 -71.19,434.84 29.98,58.95 103.67,86.53 163.86,122.43"
         style="fill:#3b393d;fill-opacity:1;fill-rule:nonzero;stroke:none"
         id="path88" /><path
         d="m 2509.53,4974.53 c -101.34,-37.23 -195.7,5.83 -181.32,109.21 12.74,91.36 107.94,168.3 180.39,228.18 96.2,79.55 195.98,221.41 314.32,261.35 170.9,57.64 172.43,-150.23 104.3,-257.99 -81.41,-128.73 -280.14,-290.24 -417.69,-340.75"
         style="fill:#3b393d;fill-opacity:1;fill-rule:nonzero;stroke:none"
         id="path90" /><path
         d="m 1361.46,5136.9 c 2.71,7.54 5.75,14.76 9.21,21.53 29.98,58.95 103.67,86.53 163.86,122.43 156.84,93.53 327.65,85.05 503.22,92.35 166.11,6.93 342.19,-69.51 439.6,-197.65 11.63,-15.3 21.65,-33.29 30.18,-53.18 -54.66,-60.05 -107.24,-99.35 -163.27,-125.3 -39.81,-44.83 -91.83,-81.81 -153.08,-106.43 -68.84,-27.65 -132.48,-47.45 -207.52,-50.23 -118.74,-4.39 -259.66,0.01 -360.84,70.65 -23.43,16.35 -41.89,41.35 -56.2,70.58 -79.45,28.58 -149.17,76.42 -205.16,155.25"
         style="fill:#272626;fill-opacity:1;fill-rule:nonzero;stroke:none"
         id="path92" /><path
         d="m 1298.92,6016 c -103.71,-187.03 -71.68,-530.16 -10.69,-692.15 9.52,-25.26 20.36,-49.98 32.67,-73.94 138,-268.68 394,-265.92 676.43,-258.52 237.66,6.21 372,16.87 528.22,200.8 124.07,146.07 105.43,359.21 94.58,538.63 -23.45,387.03 -436.09,499.65 -765.45,478.6 -157.2,-10.04 -364.47,-12.46 -489.21,-112.15 -26.61,-21.26 -48.61,-48.92 -66.55,-81.27"
         style="fill:#3b393d;fill-opacity:1;fill-rule:nonzero;stroke:none"
         id="path94" /><path
         d="m 1519.76,5700.21 c 2.06,-82.77 34.88,-149.09 73.32,-148.13 38.39,0.95 67.86,68.83 65.8,151.6 -2.07,82.78 -34.89,149.1 -73.28,148.14 -38.43,-0.96 -67.9,-68.83 -65.84,-151.61"
         style="fill:#100f0d;fill-opacity:1;fill-rule:nonzero;stroke:none"
         id="path96" /><path
         d="m 2346.87,5049.21 c -40.28,-46.72 -93.72,-85.18 -156.89,-110.55 -68.83,-27.67 -132.48,-47.46 -207.51,-50.23 -118.74,-4.39 -259.66,0.01 -360.85,70.64 -111.34,77.72 -134.77,340.81 -49.2,442.74 49.36,58.79 144.17,67.23 205.88,108.56 83.97,56.29 63.4,113.43 102.11,194.57 32.35,67.81 103.13,89.85 150.94,25.78 42.75,-57.33 49.91,-180.46 118.64,-204.77 76.89,-27.13 178.76,-22.15 232.1,-87.72 88.49,-108.72 47.71,-292.83 -35.22,-389.02"
         style="fill:#bbbcbd;fill-opacity:1;fill-rule:nonzero;stroke:none"
         id="path98" /><path
         d="m 2248.09,5719.54 c 2.05,-82.78 34.88,-149.11 73.3,-148.15 38.4,0.96 67.86,68.84 65.79,151.62 -2.07,82.76 -34.87,149.09 -73.27,148.14 -38.42,-0.96 -67.9,-68.85 -65.82,-151.61"
         style="fill:#100f0d;fill-opacity:1;fill-rule:nonzero;stroke:none"
         id="path100" /><path
         d="m 1793.52,5399.31 c 1.11,-44.56 82.98,-78.67 182.87,-76.18 99.86,2.49 179.93,40.64 178.82,85.2 -1.12,44.56 -82.99,78.67 -182.85,76.17 -99.88,-2.48 -179.95,-40.64 -178.84,-85.19"
         style="fill:#100f0d;fill-opacity:1;fill-rule:nonzero;stroke:none"
         id="path102" /><path
         d="m 1883.14,5064.7 c 14.12,0.35 27.96,3.15 40.92,8.48 36.83,15.17 65.42,47.26 82.62,92.76 22.78,60.12 21.6,136.9 -2.84,186.71 -3.85,7.79 -13.24,11.01 -21.04,7.18 -7.77,-3.81 -10.99,-13.23 -7.17,-21 20.58,-41.95 21.31,-109.99 1.69,-161.78 -9.8,-25.92 -29.07,-59.95 -65.21,-74.84 -28.48,-11.75 -63.48,-6.53 -91.39,13.56 -26.97,19.42 -41.87,48.79 -39.86,78.53 0.58,8.66 -5.96,16.14 -14.6,16.74 -8.75,0.61 -16.16,-5.94 -16.73,-14.6 -2.76,-40.66 17,-80.36 52.85,-106.17 24.29,-17.49 52.99,-26.26 80.76,-25.57"
         style="fill:#100f0d;fill-opacity:1;fill-rule:nonzero;stroke:none"
         id="path104" /><path
         d="m 2059.57,5080.9 c 9.02,0.23 17.83,1.78 25.85,4.74 23.56,8.72 37.92,27.95 40.45,54.17 0.84,8.63 -5.49,16.31 -14.12,17.15 -8.54,0.8 -16.31,-5.5 -17.15,-14.13 -1.35,-14.17 -7.92,-23.24 -20.05,-27.74 -19.08,-7.03 -47.17,-0.64 -62.69,14.28 -9.09,8.74 -11.95,18.59 -8.46,29.26 2.69,8.25 -1.82,17.11 -10.07,19.79 -8.24,2.69 -17.11,-1.81 -19.79,-10.06 -7.21,-22.12 -1.18,-44.59 16.57,-61.63 17.7,-17.03 44.5,-26.45 69.46,-25.83"
         style="fill:#100f0d;fill-opacity:1;fill-rule:nonzero;stroke:none"
         id="path106" /><path
         d="m 1077.51,5922.04 c 14.43,-21.48 28.86,-42.97 43.2,-64.44 32.7,-48.95 70.56,-90.61 128.14,-112.53 50.51,-19.25 103.05,-6.98 145.95,23.94 48.48,34.95 66.2,85.3 103.24,128.42 30.6,35.58 68.58,49.38 81,99.43 13.97,56.41 -18.2,110.74 -57.66,149.16 -20.22,19.71 -40.77,45.74 -64.92,59.19 -34.08,18.99 -78.83,36.75 -116.44,48.14 -57.36,17.39 -116.77,19.71 -176.19,25.63 -61.25,6.11 -125.09,5.8 -186.725,3.99 -46.042,-1.35 -93.421,2.96 -138.531,-7.15 13.453,-26.91 40.996,-54.36 57.832,-81.47 26.696,-42.93 54.258,-84.26 82.547,-126.26 32.787,-48.65 65.767,-97.34 98.557,-146.05"
         style="fill:#3b393d;fill-opacity:1;fill-rule:nonzero;stroke:none"
         id="path108" /><path
         d="m 1438.85,6109.59 c -49.38,37.32 -109.86,48.65 -168.07,63.74 -97.63,25.32 -201.68,61.16 -303.491,38.15 1.899,0.42 62.551,-122.38 67.561,-135.33 13.92,-36.08 103.41,-161.48 135.04,-186.29 28.95,-22.72 58.95,-32.26 84.69,-61.76 6.11,21.16 0.69,45.77 5.4,68.47 5.43,26.42 17.3,53.5 30.82,77.24 16.34,28.67 114.01,132.24 148.05,135.78"
         style="fill:#100f0d;fill-opacity:1;fill-rule:nonzero;stroke:none"
         id="path110" /><path
         d="m 2756.77,5963.93 c -13.36,-22.17 -26.7,-44.35 -39.93,-66.51 -30.24,-50.52 -65.97,-94.02 -122.38,-118.79 -49.5,-21.73 -102.58,-12.1 -146.96,16.64 -50.15,32.5 -70.37,81.9 -109.51,123.1 -32.32,34.02 -70.95,45.91 -85.87,95.28 -16.77,55.64 12.67,111.52 50.17,151.86 19.22,20.69 38.42,47.72 61.88,62.35 33.08,20.66 76.89,40.63 113.89,53.88 56.41,20.24 115.63,25.51 174.7,34.39 60.88,9.15 124.63,12.02 186.29,13.3 46.04,0.94 93.15,7.61 138.69,-0.24 -12.06,-27.55 -38.21,-56.35 -53.69,-84.25 -24.5,-44.21 -49.98,-86.86 -76.13,-130.22 -30.33,-50.22 -60.83,-100.51 -91.15,-150.79"
         style="fill:#3b393d;fill-opacity:1;fill-rule:nonzero;stroke:none"
         id="path112" /><path
         d="m 2386.53,6133.23 c 47.43,39.74 107.27,54.06 164.66,72.05 96.24,30.14 198.39,71.13 301.22,53.23 -1.92,0.33 -56.36,-125.35 -60.71,-138.52 -12.12,-36.74 -95.24,-166.44 -125.59,-192.8 -27.79,-24.14 -57.28,-35.17 -81.52,-65.92 -7.15,20.83 -2.96,45.69 -8.77,68.13 -6.77,26.12 -19.97,52.57 -34.66,75.61 -17.75,27.82 -120.47,126.4 -154.63,128.22"
         style="fill:#100f0d;fill-opacity:1;fill-rule:nonzero;stroke:none"
         id="path114" /><path
         d="m 3912.2,4440.23 c -159.12,89.6 -329.67,76.84 -505.35,79.78 -166.24,2.77 -340.35,-78.03 -434.55,-208.56 -84.36,-116.9 -78.67,-381.62 25.21,-490.14 131.31,-137.21 413.69,-123.62 595.45,-124.9 167.77,-1.17 319.57,68.79 425.79,189.02 79.9,90.4 121.21,323.81 60.31,436.48 -31.44,58.2 -105.79,83.93 -166.86,118.32"
         style="fill:#549288;fill-opacity:1;fill-rule:nonzero;stroke:none"
         id="path116" /><path
         d="m 4088.55,4301.25 c -2.84,7.24 -5.98,14.17 -9.49,20.66 -31.44,58.2 -105.79,83.93 -166.86,118.32 -159.12,89.6 -329.67,76.84 -505.35,79.78 -166.24,2.77 -340.35,-78.03 -434.55,-208.56 -11.09,-15.39 -20.62,-33.4 -28.57,-53.22 97.37,-101.69 186.94,-141.08 298.54,-156.31 10.88,-11.77 21.75,-23.24 32.48,-33.99 33.67,-33.73 80.95,-67.61 122.03,-92.15 7.49,16.89 7.96,38.14 12.45,57.24 27.35,-16.75 56.99,-66.18 73.73,-91.6 4.65,25.84 7.84,52.95 14.49,78.66 6.66,-25.71 9.84,-52.82 14.5,-78.66 16.73,25.42 46.37,74.85 73.73,91.6 4.5,-19.1 4.96,-40.35 12.45,-57.24 41.08,24.54 88.36,58.42 122.03,92.15 12.38,12.41 24.96,25.77 37.51,39.53 133.6,21.29 248.94,72.29 330.88,193.79"
         style="fill:#2f544f;fill-opacity:1;fill-rule:nonzero;stroke:none"
         id="path118" /><path
         d="m 4129.4,5181.02 c -18.74,31.88 -41.42,59.01 -68.54,79.59 -127.21,96.54 -334.46,93.78 -491.86,99.92 -329.81,12.82 -739.5,-110.06 -753.27,-497.57 -6.38,-179.63 -19.7,-393.17 107.99,-536.09 105.29,-117.89 199.37,-161.68 318.55,-177.96 10.88,-11.77 21.75,-23.23 32.48,-33.98 33.67,-33.73 80.95,-67.61 122.03,-92.16 7.49,16.9 7.96,38.14 12.45,57.26 27.35,-16.76 56.99,-66.2 73.73,-91.62 4.65,25.84 7.84,52.96 14.49,78.67 6.66,-25.71 9.84,-52.83 14.5,-78.67 16.73,25.42 46.37,74.86 73.73,91.62 4.5,-19.12 4.96,-40.36 12.45,-57.26 41.08,24.55 88.36,58.43 122.03,92.16 12.38,12.4 24.96,25.77 37.51,39.51 155.75,24.82 286.72,89.94 368.86,260.18 11.71,24.26 21.93,49.24 30.82,74.73 56.93,163.46 80.38,507.3 -27.95,691.67"
         style="fill:#549288;fill-opacity:1;fill-rule:nonzero;stroke:none"
         id="path120" /><path
         d="m 3955.09,5303.42 c -52.04,17.81 -104.61,28.11 -159.69,39.85 -10.06,29.1 -12.55,59.46 -19.39,89.18 -38.2,-3.42 -47.13,-50.18 -67.82,-74.29 -11.71,26.45 -16.44,55.16 -27.96,83.22 -38.22,-11.37 -62.22,-55.47 -87.29,-81.62 -18.36,27.53 -23.34,52.9 -37.45,78.88 -34.7,-9.34 -44.31,-56.03 -64.36,-80.12 -10.47,23.84 -23.75,49.16 -38.71,74.07 -41.29,-10.88 -39.44,-74.91 -67.84,-94.88 -21.49,30.95 -32.64,65.46 -52.2,97.63 -50.1,-46.38 -57.35,-98.01 -112.97,-134.26 l 735.68,2.34"
         style="fill:#549288;fill-opacity:1;fill-rule:nonzero;stroke:none"
         id="path122" /><path
         d="m 4411.28,5071.52 c -70.04,-71.07 -137.07,-111.67 -240.96,-129.22 -81.05,-13.67 -203.96,-27.4 -273.93,28 -71.26,56.42 -45.45,147.67 -4.39,214.2 22.3,36.13 48.07,66.94 82.13,91.04 32.62,23.11 64.29,59.36 100.38,77.61 40.59,20.51 86.69,29.32 131.53,36.92 76.46,12.97 181.9,17.72 243.06,-39.97 -20.71,0.66 -48.18,-1.56 -66.17,-11.92 38.91,-19.96 89.14,-52.75 100.84,-95.33 -22.45,-4.05 -47.31,-4.92 -69.35,-5.35 39.6,-30.1 69.37,-61.04 98.48,-102.78 -40.89,-9.15 -56.27,-15.07 -85.33,-46.21 -5.45,-5.84 -10.87,-11.51 -16.29,-16.99"
         style="fill:#4e9283;fill-opacity:1;fill-rule:nonzero;stroke:none"
         id="path124" /><path
         d="m 4207.15,5262.87 c 52.38,12.13 109.41,7.92 157.32,-10.72 -12.34,-8.95 -29.6,-19.05 -46.17,-22.95 22.11,-20.84 50.67,-36.33 71.14,-61.69 -20.89,-3.02 -42.11,-6.33 -62.54,-10.88 14.43,-26.26 78.45,-38.19 37.49,-63.24 -14.23,-8.7 -41.34,-5.01 -57.48,-9.66 -23.25,-6.7 -43.77,-18.43 -64.25,-31.45 -50.53,-32.07 -92,-55.8 -142.67,-9.67 -35.75,32.59 -52.11,77.18 -28.61,121.56 28.33,53.52 79.35,85.61 135.77,98.7"
         style="fill:#2f544f;fill-opacity:1;fill-rule:nonzero;stroke:none"
         id="path126" /><path
         d="m 2595.69,5071.52 c 70.04,-71.07 137.07,-111.67 240.94,-129.22 81.07,-13.67 203.98,-27.4 273.95,28 71.26,56.42 45.45,147.67 4.38,214.2 -22.3,36.13 -48.07,66.94 -82.13,91.04 -32.61,23.11 -64.29,59.36 -100.39,77.61 -40.58,20.51 -86.67,29.32 -131.51,36.92 -76.47,12.97 -181.89,17.72 -243.05,-39.97 20.71,0.66 48.16,-1.56 66.15,-11.92 -38.89,-19.96 -89.14,-52.75 -100.83,-95.33 22.44,-4.05 47.31,-4.92 69.33,-5.35 -39.57,-30.1 -69.36,-61.04 -98.46,-102.78 40.9,-9.15 56.26,-15.07 85.34,-46.21 5.44,-5.84 10.86,-11.51 16.28,-16.99"
         style="fill:#4e9283;fill-opacity:1;fill-rule:nonzero;stroke:none"
         id="path128" /><path
         d="m 2799.8,5262.87 c -52.36,12.13 -109.41,7.92 -157.3,-10.72 12.34,-8.95 29.58,-19.05 46.17,-22.95 -22.11,-20.84 -50.69,-36.33 -71.14,-61.69 20.88,-3.02 42.1,-6.33 62.54,-10.88 -14.44,-26.26 -78.44,-38.19 -37.49,-63.24 14.23,-8.7 41.34,-5.01 57.48,-9.66 23.25,-6.7 43.77,-18.43 64.26,-31.45 50.52,-32.07 91.98,-55.8 142.66,-9.67 35.75,32.59 52.09,77.18 28.61,121.56 -28.34,53.52 -79.36,85.61 -135.79,98.7"
         style="fill:#2f544f;fill-opacity:1;fill-rule:nonzero;stroke:none"
         id="path130" /><path
         d="m 3916.5,4838.83 c 0,94.3 -31.15,170.75 -69.59,170.75 -38.41,0 -69.56,-76.45 -69.56,-170.75 0,-14.49 0.82,-28.48 2.21,-41.9 h 134.74 c 1.38,13.42 2.2,27.41 2.2,41.9"
         style="fill:#100f0d;fill-opacity:1;fill-rule:nonzero;stroke:none"
         id="path132" /><path
         d="m 3118.35,5010.89 c -38.42,0 -69.57,-76.44 -69.57,-170.76 0,-14.95 0.89,-29.38 2.35,-43.2 h 134.48 c 1.46,13.82 2.32,28.25 2.32,43.2 0,94.32 -31.15,170.76 -69.58,170.76"
         style="fill:#100f0d;fill-opacity:1;fill-rule:nonzero;stroke:none"
         id="path134" /><path
         d="m 3638.04,4557.15 c 0,-41.12 -74.71,-74.45 -166.86,-74.45 -92.15,0 -166.87,33.33 -166.87,74.45 0,41.1 74.72,74.45 166.87,74.45 92.15,0 166.86,-33.35 166.86,-74.45"
         style="fill:#100f0d;fill-opacity:1;fill-rule:nonzero;stroke:none"
         id="path136" /><path
         d="m 3678.27,4232.65 c -4.34,0 -10.74,1.25 -22.11,3.49 -35.06,6.85 -108.01,21.09 -159.42,12.53 -7.86,-1.31 -19.55,0.26 -30.87,15.08 -32.19,42.14 -49.16,183.66 -20.68,245.55 3.33,7.26 11.93,10.46 19.2,7.09 7.27,-3.34 10.44,-11.95 7.1,-19.21 -20.63,-44.82 -12.84,-146.39 8.01,-198.1 6.66,-16.52 11.94,-20.82 13.29,-21.71 56.56,9.15 132.39,-5.67 168.91,-12.81 5.99,-1.16 12.12,-2.38 14.99,-2.8 8.29,0.88 16.02,-5.88 16.04,-14.4 0,-4.33 -2,-8.53 -5.34,-11.28 -2.86,-2.33 -5.12,-3.43 -9.12,-3.43"
         style="fill:#100f0d;fill-opacity:1;fill-rule:nonzero;stroke:none"
         id="path138" /><path
         d="m 3319.81,4235.99 c -6.81,0 -12.86,4.82 -14.21,11.75 -1.5,7.86 3.64,15.45 11.48,16.96 24.19,4.65 48.4,6.35 69.73,7.83 27.31,1.93 58.23,4.07 64.06,12.94 2.51,3.82 0.25,11.85 -1.33,16.28 -2.66,7.55 1.27,15.83 8.83,18.49 7.53,2.68 15.81,-1.28 18.47,-8.82 5.98,-16.86 5.4,-30.94 -1.75,-41.83 -13.7,-20.88 -45.71,-23.11 -86.26,-25.95 -20.53,-1.43 -43.8,-3.05 -66.27,-7.38 -0.93,-0.18 -1.85,-0.27 -2.75,-0.27"
         style="fill:#100f0d;fill-opacity:1;fill-rule:nonzero;stroke:none"
         id="path140" /><path
         d="m 3475.3,4675.92 c -11.69,-10.94 -23.99,-21.51 -36.32,-26.74 3.97,13.53 7.16,29.84 8.54,43.38 -30.49,-15.48 -63.35,-35.07 -96.45,-48.42 9.75,16.58 16.8,33.73 21.98,52.62 -36.2,-18.85 -68.55,-48.23 -112.3,-58.26 5.72,8.67 29.55,23.1 40.72,35.8 28.58,32.47 39.35,81.95 53.42,121.88 13.54,38.36 23.48,82.14 20.44,123.02 -1.58,20.75 -2.41,99.16 -14.7,113.12 18.17,-20.63 22.49,-51.13 33.41,-75.68 27.08,14.07 30.69,70.92 59.67,92.29 5.36,-23.47 5.86,-68.61 24.33,-82.22 4.15,-3.05 31.92,61.86 40.33,63 22.05,2.95 27.32,-52.35 30.49,-66.82 20.95,6.36 30.19,56.54 36.38,77.43 -6.79,-22.91 17.35,-76.72 22.6,-100.37 8.01,-36.15 15.49,-72.71 17.37,-109.78 2.81,-53.97 10.68,-139.23 -29.97,-181.53 -1.12,23.92 -24.41,38.62 -32.8,59.39 -15.65,-16.2 -29.83,-39.24 -34.63,-60.65 -10.35,11.44 -18.87,34.7 -28.58,50.83 -7.54,-6.42 -15.6,-14.46 -23.93,-22.29"
         style="fill:#76bcab;fill-opacity:1;fill-rule:nonzero;stroke:none"
         id="path142" /><path
         d="m 5733.14,4726.01 c -2.2,-3.77 -4.41,-7.27 -6.55,-10.49 -36.49,-54.47 -106.44,-80.4 -170.83,-78.23 -63.43,2.13 -105.89,66.18 -47.32,112.09 41.25,32.31 95.4,30.87 142.42,52.79 35.63,16.63 72.85,36.05 106.96,54.01 17.97,-35.76 -3.77,-94.5 -24.68,-130.17"
         style="fill:#b12822;fill-opacity:1;fill-rule:nonzero;stroke:none"
         id="path144" /><path
         d="m 5385.35,5056.08 c -165.87,93.41 -343.68,80.13 -526.82,83.16 -173.34,2.92 -354.85,-81.33 -453.01,-217.42 -87.97,-121.86 -82.02,-397.82 26.28,-510.96 136.87,-143 431.01,-166.22 620.49,-167.52 174.9,-1.24 348.88,67.9 459.62,193.25 83.28,94.21 110.88,378.7 47.4,496.16 -32.8,60.64 -110.32,87.48 -173.96,123.33"
         style="fill:#e94d31;fill-opacity:1;fill-rule:nonzero;stroke:none"
         id="path146" /><path
         d="m 5569.45,4910.55 c -3.01,7.8 -6.38,15.23 -10.14,22.2 -32.8,60.64 -110.32,87.48 -173.96,123.33 -165.87,93.41 -343.68,80.13 -526.82,83.16 -173.34,2.92 -354.85,-81.33 -453.01,-217.42 -11.73,-16.22 -21.72,-35.25 -30.08,-56.2 58.52,-61.15 114.35,-100.75 173.39,-126.35 42.68,-45.68 97.84,-82.87 162.32,-106.92 72.46,-27.04 139.31,-46.01 217.58,-46.94 123.85,-1.51 270.6,6.74 374.21,82.98 23.98,17.65 42.59,44.19 56.74,75.02 82.07,31.86 153.48,83.53 209.77,167.14"
         style="fill:#891d1c;fill-opacity:1;fill-rule:nonzero;stroke:none"
         id="path148" /><path
         d="m 5611.77,5828.34 c 112.95,-192.21 88.49,-550.65 29.14,-721.05 -9.26,-26.56 -19.92,-52.61 -32.13,-77.92 -136.84,-283.59 -403.67,-287.36 -698.21,-286.99 -247.85,0.29 -388.13,7.9 -555.74,195.52 -133.08,149.02 -119.2,371.62 -112.55,558.9 14.38,403.94 441.48,532.05 785.28,518.68 164.1,-6.4 380.15,-3.51 512.76,-104.17 28.26,-21.46 51.92,-49.74 71.45,-82.97"
         style="fill:#e94d31;fill-opacity:1;fill-rule:nonzero;stroke:none"
         id="path150" /><path
         d="m 4544.79,4793.55 c 43.17,-47.64 99.88,-86.35 166.36,-111.14 72.46,-27.05 139.31,-46.01 217.58,-46.95 123.85,-1.5 270.6,6.76 374.21,82.99 81.62,60.05 102.24,221.23 89.6,314.65 -13.88,102.68 -50.86,208.87 -149.31,255.08 -99.73,46.8 -190.99,97.08 -304.18,98.03 -55.9,0.44 -105.05,0.08 -157.62,-18.38 -79.15,-27.81 -199.95,-62.22 -252.64,-132.03 -114.95,-152.25 -90.73,-324.55 16,-442.25"
         style="fill:#fbc076;fill-opacity:1;fill-rule:nonzero;stroke:none"
         id="path152" /><path
         d="m 5030.64,5712.75 c 10.84,100.96 55.94,185.27 83.47,281.98 1.66,5.84 3.16,11.72 4.45,17.6 -31.43,1.17 -62.05,2.02 -91,3.15 -72,2.81 -147.64,-0.7 -222.37,-11.55 10.38,-53.62 34.31,-108.61 38.44,-156.56 5.01,-58.03 -0.29,-118.82 -0.23,-177.11 0.09,-93.83 -13.47,-186.98 -31.31,-277.35 -15.81,-80.11 -30.51,-147.75 53.59,-190.72 56.58,-28.92 187.37,-40.36 187.24,52.51 -0.07,34.88 -24.02,55.97 -32.19,88.17 -7.83,30.83 -3.46,70.11 -3.46,103.51 0,89.87 3.89,178.17 13.37,266.37"
         style="fill:#fbc076;fill-opacity:1;fill-rule:nonzero;stroke:none"
         id="path154" /><path
         d="m 5112.36,5172.8 c 0,-46.46 -84.43,-84.14 -188.61,-84.14 -104.13,0 -188.55,37.68 -188.55,84.14 0,46.46 84.42,84.14 188.55,84.14 104.18,0 188.61,-37.68 188.61,-84.14"
         style="fill:#100f0d;fill-opacity:1;fill-rule:nonzero;stroke:none"
         id="path156" /><path
         d="m 5027.66,4821.75 c -14.72,0 -29.23,2.55 -42.87,7.76 -38.78,14.86 -69.41,47.55 -88.53,94.52 -25.27,62.08 -26.04,142.14 -1.87,194.67 3.79,8.21 13.51,11.83 21.73,8.04 8.2,-3.78 11.8,-13.5 8.02,-21.71 -20.35,-44.24 -19.35,-115.18 2.44,-168.64 10.9,-26.78 31.88,-61.73 69.92,-76.3 29.97,-11.51 66.31,-5.16 94.86,16.5 27.63,20.94 42.39,51.93 39.52,82.88 -0.83,9 5.77,16.98 14.77,17.83 9.12,0.85 16.99,-5.8 17.82,-14.78 3.95,-42.31 -15.61,-84.18 -52.33,-112.04 -24.86,-18.84 -54.52,-28.73 -83.48,-28.73"
         style="fill:#100f0d;fill-opacity:1;fill-rule:nonzero;stroke:none"
         id="path158" /><path
         d="m 4843.38,4834.04 c -9.42,0 -18.62,1.38 -27.08,4.28 -24.78,8.46 -40.25,28.13 -43.56,55.39 -1.09,8.98 5.31,17.14 14.26,18.24 8.9,1.06 17.16,-5.31 18.23,-14.29 1.79,-14.74 8.87,-24 21.65,-28.39 20.06,-6.81 49.17,0.58 64.97,16.53 9.21,9.33 11.94,19.67 8.06,30.7 -3.04,8.53 1.45,17.88 9.97,20.91 8.5,2.99 17.85,-1.47 20.88,-9.98 8.07,-22.88 2.37,-46.44 -15.64,-64.66 -18.04,-18.22 -45.73,-28.73 -71.74,-28.73"
         style="fill:#100f0d;fill-opacity:1;fill-rule:nonzero;stroke:none"
         id="path160" /><path
         d="m 5229.5,5495.31 c -4.58,-18.87 -4.74,-38.91 -3.36,-56.57 2.27,-28.9 71.44,28.09 71.19,27.95 15.3,8.09 21.64,16.5 42.72,13.9 28.88,-3.61 74.72,-71.53 91.92,-19.56 18.47,55.69 -58.65,116.67 -129.95,102.43 -45.16,-9.01 -64.92,-37.01 -72.52,-68.15"
         style="fill:#100f0d;fill-opacity:1;fill-rule:nonzero;stroke:none"
         id="path162" /><path
         d="m 4454.17,5492.39 c -4.59,-18.87 -4.76,-38.91 -3.37,-56.56 2.25,-28.9 71.44,28.08 71.19,27.95 15.29,8.08 21.65,16.5 42.71,13.89 28.88,-3.61 74.72,-71.53 91.94,-19.56 18.44,55.7 -58.66,116.66 -129.97,102.43 -45.16,-9.01 -64.93,-37.01 -72.5,-68.15"
         style="fill:#100f0d;fill-opacity:1;fill-rule:nonzero;stroke:none"
         id="path164" /><path
         d="m 4049.51,5749.96 c -37.3,-71.94 -68.51,-157.47 -85.89,-234.68 -22.63,-100.58 -49.48,-221.17 -4.2,-319.41 42.16,-91.5 139.77,-148.46 235.51,-91.64 25.45,15.07 47.64,33.46 61.63,57.62 39.12,67.49 23.05,120.34 48.27,193.16 36.99,106.81 80.1,194.53 116.26,275.34 29.33,65.55 97.83,128.03 100.9,203.03 2.95,71.89 -56.17,122.33 -122.67,125.52 -141.7,6.77 -268.09,-62.61 -337.51,-186.2 -4.16,-7.41 -8.27,-15 -12.3,-22.74"
         style="fill:#b12822;fill-opacity:1;fill-rule:nonzero;stroke:none"
         id="path166" /><path
         d="m 5873.97,5749.96 c 37.31,-71.94 68.49,-157.47 85.89,-234.68 22.63,-100.58 49.49,-221.17 4.2,-319.41 -42.17,-91.5 -139.76,-148.46 -235.51,-91.64 -25.43,15.07 -47.63,33.46 -61.62,57.62 -39.14,67.49 -23.07,120.34 -48.26,193.16 -36.99,106.81 -80.12,194.53 -116.29,275.34 -29.3,65.55 -97.82,128.03 -100.9,203.03 -2.93,71.89 56.19,122.33 122.69,125.52 141.69,6.77 268.09,-62.61 337.51,-186.2 4.16,-7.41 8.26,-15 12.29,-22.74"
         style="fill:#b12822;fill-opacity:1;fill-rule:nonzero;stroke:none"
         id="path168" /><path
         d="m 8682.74,3458.44 c 112.04,157.42 172.87,346.29 172.87,541.04 0,514.96 -418.95,933.93 -933.93,933.93 -381.66,0 -718.95,-228.18 -862.62,-575.47 H 2911.42 c -143.67,347.29 -480.95,575.47 -862.6,575.47 -514.97,0 -933.94,-418.97 -933.94,-933.93 0,-212.94 71.27,-415.78 202.38,-580.45 -112.04,-157.43 -172.87,-346.29 -172.87,-541.02 0,-514.96 418.96,-933.93 933.94,-933.93 381.68,0 718.96,228.19 862.61,575.47 h 4147.63 c 143.65,-347.28 480.94,-575.47 862.62,-575.47 514.97,0 933.93,418.97 933.93,933.93 0,212.94 -71.26,415.75 -202.38,580.43"
         style="fill:#653118;fill-opacity:1;fill-rule:nonzero;stroke:none"
         id="path170" /><path
         d="m 8542.73,3454.72 c 127.7,145.44 205.27,335.98 205.27,544.76 0,456.36 -369.96,826.32 -826.32,826.32 -368.91,0 -681.22,-241.78 -787.45,-575.47 H 2836.26 c -106.23,333.69 -418.55,575.47 -787.44,575.47 -456.37,0 -826.32,-369.96 -826.32,-826.32 0,-224.41 89.57,-427.8 234.77,-576.71 C 1329.58,3277.3 1252,3086.78 1252,2878.01 c 0,-456.37 369.96,-826.33 826.33,-826.33 368.9,0 681.23,241.8 787.43,575.49 h 4297.98 c 106.2,-333.69 418.54,-575.49 787.45,-575.49 456.36,0 826.32,369.96 826.32,826.33 0,224.41 -89.59,427.8 -234.78,576.71"
         style="fill:#ffffff;fill-opacity:1;fill-rule:nonzero;stroke:none"
         id="path172" /><path
         d="m 7951.18,2051.68 c -368.9,0 -681.24,241.8 -787.44,575.49 H 2865.76 c -106.2,-333.69 -418.53,-575.49 -787.43,-575.49 v 0 c 368.9,0 681.23,241.8 787.43,575.49 h 4297.98 c 106.2,-333.69 418.54,-575.49 787.45,-575.49 -0.01,0 -0.01,0 -0.01,0 m -5872.85,0 c -0.4,0 -0.77,0 -1.17,0 0.39,0 0.78,0 1.17,0 m -1.43,0 c -0.31,0 -0.59,0 -0.89,0 0.3,0 0.58,0 0.89,0 m 6485.64,270.39 c 0.05,0.06 0.08,0.08 0.13,0.14 -0.04,-0.04 -0.09,-0.1 -0.13,-0.14 m 0.42,0.46 c 5.71,6.28 11.3,12.63 16.82,19.1 -0.79,-0.93 -1.57,-1.85 -2.35,-2.75 -4.75,-5.52 -9.58,-10.98 -14.47,-16.35 m -7122.27,29.87 c -3.9,4.72 -7.75,9.49 -11.55,14.31 -1.77,2.24 -3.56,4.54 -5.37,6.88 5.53,-7.16 11.16,-14.22 16.92,-21.19 m -31.16,40.2 c -98.45,135 -238.51,400.06 -154.55,555.99 -1.97,-23.26 -2.98,-46.81 -2.98,-70.58 0,-181.39 58.44,-349.12 157.53,-485.41 m 7293.13,141.28 c 48.06,104.77 74.85,221.32 74.85,344.13 0,33.69 -2.02,66.93 -5.95,99.56 15.8,-28.79 23.88,-62.24 25.9,-98.59 5.88,-105.2 -38.94,-234.72 -94.8,-345.1"
         style="fill:#4f2818;fill-opacity:1;fill-rule:nonzero;stroke:none"
         id="path174" /><path
         d="m 2078.33,2051.68 v 0 c -0.39,0 -0.78,0 -1.17,0 -0.08,0 -0.18,0 -0.26,0 -0.31,0 -0.59,0 -0.89,0 -244.57,0.71 -479.82,112.47 -635.32,300.72 -5.76,6.97 -11.39,14.03 -16.92,21.19 -4.63,6 -9.38,12.34 -14.24,19.01 -99.09,136.29 -157.53,304.02 -157.53,485.41 0,23.77 1.01,47.32 2.98,70.58 3.63,6.74 7.68,13.28 12.17,19.59 149.91,-311.31 400.92,-471.07 724.9,-471.05 33.78,0 68.41,1.74 103.75,5.22 141.88,14.01 295.04,51.5 428.32,116.29 104.05,50.59 303.48,354.36 439.47,354.36 8.75,0 17.27,-1.27 25.45,-3.94 21.63,-7.06 62.5,-59.8 91.13,-73.19 46.45,-21.74 81.2,-24.4 130.73,-27.72 25.6,-1.71 51.03,-2.36 76.39,-2.36 38.83,0 77.47,1.52 116.1,3.04 38.63,1.52 77.26,3.03 116.11,3.03 32.06,0 64.27,-1.03 96.74,-3.95 132.75,-11.93 262.23,-18.07 396.89,-18.07 0.32,0 0.67,0 0.99,0 467.54,0.11 934.1,33.07 1400.98,53.62 40.78,1.79 81.5,2.59 122.19,2.59 175.92,0 351.13,-15.02 526.16,-30.04 175.04,-15.02 349.91,-30.04 525.2,-30.04 49.14,0 98.33,1.18 147.54,3.87 94.32,5.16 173.06,5.04 256.42,48.06 81.28,41.94 118.94,107.13 192.89,150.18 -48.14,-28.03 41.19,-244.03 61.51,-278.22 56.43,-94.96 163.22,-163.95 249.18,-231.81 128.86,-101.76 326.47,-167.06 485.04,-183.14 22.46,-2.27 44.38,-3.38 65.84,-3.38 340.7,0.02 557.58,278.42 685.24,562.41 12.7,28.24 15.3,54.51 29.8,78.96 3.42,-4.95 6.56,-10.06 9.45,-15.33 3.93,-32.63 5.95,-65.87 5.95,-99.56 0,-122.81 -26.79,-239.36 -74.85,-344.13 -40.16,-79.36 -86.03,-148.82 -122.88,-192.25 -5.52,-6.47 -11.11,-12.82 -16.82,-19.1 -0.1,-0.11 -0.19,-0.21 -0.29,-0.32 -0.05,-0.06 -0.08,-0.08 -0.13,-0.14 -155.66,-170.89 -379.73,-270.39 -611.36,-270.39 -368.9,0 -681.24,241.8 -787.44,575.49 H 2865.76 c -106.2,-333.69 -418.53,-575.49 -787.43,-575.49"
         style="fill:#cdccca;fill-opacity:1;fill-rule:nonzero;stroke:none"
         id="path176" /><path
         d="m 8403.22,2800.4 c -71.09,0 -143.1,53.57 -42.64,77.8 10.19,2.45 32.84,5.26 56.19,5.26 43.65,0 89.78,-9.78 61.76,-49.92 -16.84,-24.03 -46,-33.14 -75.31,-33.14"
         style="fill:#cdccca;fill-opacity:1;fill-rule:nonzero;stroke:none"
         id="path178" /><path
         d="m 2560.4,2869.71 c -71.1,0 -143.11,53.57 -42.65,77.79 10.19,2.45 32.85,5.26 56.21,5.26 43.65,0 89.76,-9.78 61.74,-49.93 -16.84,-24.01 -46,-33.12 -75.3,-33.12"
         style="fill:#cdccca;fill-opacity:1;fill-rule:nonzero;stroke:none"
         id="path180" /><path
         d="m 3190.54,2988.81 c -71.09,0 -143.11,53.57 -42.65,77.79 10.2,2.46 32.86,5.26 56.21,5.26 43.65,0 89.76,-9.78 61.74,-49.93 -16.84,-24.01 -45.99,-33.12 -75.3,-33.12"
         style="fill:#cdccca;fill-opacity:1;fill-rule:nonzero;stroke:none"
         id="path182" /><path
         d="m 7370.52,3008.32 c -71.09,0 -143.11,53.58 -42.64,77.8 10.19,2.46 32.84,5.26 56.19,5.26 43.64,0 89.77,-9.78 61.76,-49.93 -16.84,-24.01 -46,-33.13 -75.31,-33.13"
         style="fill:#cdccca;fill-opacity:1;fill-rule:nonzero;stroke:none"
         id="path184" /><path
         d="m 1440.23,3053.36 c -57.1,0 -114.94,40.17 -34.24,58.34 8.18,1.84 26.38,3.95 45.14,3.95 35.05,0 72.08,-7.34 49.58,-37.45 -13.52,-18.01 -36.95,-24.84 -60.48,-24.84"
         style="fill:#cdccca;fill-opacity:1;fill-rule:nonzero;stroke:none"
         id="path186" /><path
         d="m 1591.72,2898.7 c -40.3,0 -81.12,25.1 -24.17,36.46 5.78,1.15 18.63,2.47 31.89,2.47 24.73,0 50.85,-4.59 34.97,-23.4 -9.55,-11.26 -26.08,-15.53 -42.69,-15.53"
         style="fill:#cdccca;fill-opacity:1;fill-rule:nonzero;stroke:none"
         id="path188" /><path
         d="m 8162.77,3006.97 c -40.3,0 -81.11,25.11 -24.17,36.47 5.78,1.15 18.63,2.46 31.87,2.46 24.74,0 50.88,-4.58 35,-23.4 -9.55,-11.26 -26.08,-15.53 -42.7,-15.53"
         style="fill:#cdccca;fill-opacity:1;fill-rule:nonzero;stroke:none"
         id="path190" /><path
         d="m 5826.27,4388.2 c 0,-113.44 -103.51,-205.39 -231.16,-205.39 -127.66,0 -231.16,91.95 -231.16,205.39 0,113.45 103.5,205.4 231.16,205.4 127.65,0 231.16,-91.95 231.16,-205.4"
         style="fill:#e94d31;fill-opacity:1;fill-rule:nonzero;stroke:none"
         id="path192" /><path
         d="m 7788.45,4940.56 c 47.71,-75.18 3.17,-188.93 -99.49,-254.07 -102.63,-65.14 -224.52,-56.98 -272.22,18.21 -47.72,75.19 -3.18,188.94 99.46,254.07 102.64,65.13 224.54,56.98 272.25,-18.21"
         style="fill:#89471f;fill-opacity:1;fill-rule:nonzero;stroke:none"
         id="path194" /><path
         d="m 4637.29,4370.12 c 0,-113.44 -103.49,-205.4 -231.15,-205.4 -127.68,0 -231.16,91.96 -231.16,205.4 0,113.44 103.48,205.39 231.16,205.39 127.66,0 231.15,-91.95 231.15,-205.39"
         style="fill:#e94d31;fill-opacity:1;fill-rule:nonzero;stroke:none"
         id="path196" /><path
         d="m 1963.29,870.219 c -77.63,0 -146.92,8.722 -148.87,32.511 -2.69,32.532 116.54,60.231 151.79,63.399 7.74,0.703 22,1.199 39.79,1.199 87.17,0 259.45,-12.027 168.9,-71.859 -20.47,-13.539 -121.64,-25.25 -211.61,-25.25"
         style="fill:#bfa182;fill-opacity:1;fill-rule:nonzero;stroke:none"
         id="path198" /><path
         d="m 1175.95,1375.4 c -60.26,0 -114.06,5.46 -115.57,20.33 -2.08,20.34 90.46,37.64 117.83,39.63 6,0.44 17.05,0.75 30.85,0.75 67.65,0 201.44,-7.51 131.15,-44.93 -15.9,-8.45 -94.42,-15.78 -164.26,-15.78"
         style="fill:#bfa182;fill-opacity:1;fill-rule:nonzero;stroke:none"
         id="path200" /><path
         d="m 5480.4,858.379 c -60.27,0 -114.04,5.441 -115.57,20.32 -2.06,20.332 90.47,37.641 117.85,39.633 6,0.438 17.04,0.75 30.84,0.75 67.65,0 201.44,-7.512 131.16,-44.934 -15.9,-8.449 -94.45,-15.769 -164.28,-15.769"
         style="fill:#bfa182;fill-opacity:1;fill-rule:nonzero;stroke:none"
         id="path202" /><path
         d="m 2500.49,1036.85 c -65.96,0 -148.79,26.21 -154.46,70.89 -1.2,9.55 70.22,22.4 136.48,22.4 74.9,0 143.2,-16.42 92.6,-72.56 -12.74,-14.14 -41.57,-20.73 -74.62,-20.73"
         style="fill:#bfa182;fill-opacity:1;fill-rule:nonzero;stroke:none"
         id="path204" /><path
         d="m 3354.72,512.602 c -81.6,0 -154.44,10.238 -156.49,38.179 -2.83,38.207 122.52,70.719 159.59,74.449 8.12,0.821 23.1,1.411 41.79,1.411 91.61,0 272.82,-14.121 177.61,-84.379 -21.53,-15.903 -127.91,-29.66 -222.5,-29.66"
         style="fill:#bfa182;fill-opacity:1;fill-rule:nonzero;stroke:none"
         id="path206" /><path
         d="m 3919.52,708.27 c -69.34,0 -156.43,30.781 -162.39,83.242 -1.27,11.207 73.83,26.297 143.49,26.297 78.74,0 150.54,-19.27 97.34,-85.2 C 3984.57,716 3954.27,708.27 3919.52,708.27"
         style="fill:#bfa182;fill-opacity:1;fill-rule:nonzero;stroke:none"
         id="path208" /><path
         d="m 9103.89,1705.15 c -69.34,0 -156.43,30.78 -162.39,83.24 -1.27,11.21 73.82,26.29 143.48,26.29 78.74,0 150.55,-19.27 97.35,-85.2 -13.39,-16.6 -43.69,-24.33 -78.44,-24.33"
         style="fill:#bfa182;fill-opacity:1;fill-rule:nonzero;stroke:none"
         id="path210" /><path
         d="m 9082.66,564.59 c -77.63,0 -146.91,8.719 -148.87,32.519 -2.68,32.52 116.54,60.211 151.81,63.403 7.72,0.687 21.95,1.187 39.72,1.187 87.13,0 259.53,-12.019 168.97,-71.859 -20.47,-13.531 -121.66,-25.25 -211.63,-25.25"
         style="fill:#bfa182;fill-opacity:1;fill-rule:nonzero;stroke:none"
         id="path212" /><path
         d="m 8544.69,930.02 c -61.76,0 -139.31,19.66 -144.62,53.171 -1.13,7.161 65.74,16.801 127.78,16.801 70.13,0 134.08,-12.312 86.71,-54.422 -11.93,-10.609 -38.92,-15.55 -69.87,-15.55"
         style="fill:#bfa182;fill-opacity:1;fill-rule:nonzero;stroke:none"
         id="path214" /><path
         d="m 6381.91,1130.25 c -61.75,0 -139.3,19.66 -144.61,53.18 -1.13,7.16 65.74,16.79 127.78,16.79 70.13,0 134.1,-12.3 86.72,-54.42 -11.94,-10.61 -38.93,-15.55 -69.89,-15.55"
         style="fill:#bfa182;fill-opacity:1;fill-rule:nonzero;stroke:none"
         id="path216" /><path
         d="m 613.43,624.379 c -61.754,0 -139.297,19.66 -144.614,53.18 -1.132,7.16 65.735,16.793 127.774,16.793 70.137,0 134.098,-12.301 86.719,-54.422 -11.93,-10.61 -38.926,-15.551 -69.879,-15.551"
         style="fill:#bfa182;fill-opacity:1;fill-rule:nonzero;stroke:none"
         id="path218" /><path
         d="m 7358.65,439.91 c -61.75,0 -139.29,19.672 -144.61,53.192 -1.13,7.148 65.74,16.789 127.77,16.789 70.13,0 134.09,-12.309 86.72,-54.422 -11.93,-10.61 -38.93,-15.559 -69.88,-15.559"
         style="fill:#bfa182;fill-opacity:1;fill-rule:nonzero;stroke:none"
         id="path220" /><path
         d="m 9468.56,1575.44 c -61.75,0 -139.29,19.66 -144.6,53.18 -1.12,7.16 65.75,16.8 127.78,16.8 70.14,0 134.09,-12.31 86.71,-54.42 -11.94,-10.62 -38.94,-15.56 -69.89,-15.56"
         style="fill:#bfa182;fill-opacity:1;fill-rule:nonzero;stroke:none"
         id="path222" /></g></g></svg>
